# xmcd
#
# Track frame offsets: 
#        150
#        9632
#        20865
#        30415
#        43535
#        53900
#        67867
#        82075
#        93692
#        107185
#        117210
#        128727
#
# Disc length: 1821 seconds
#
# Revision: 0
# Processed by: cddbd v1.5.2PL0 Copyright (c) Steve Scherf et al.
# Submitted via: ExactAudioCopy v0.99pb4
#
DISCID=9c071b0c
DTITLE=Jordan, Lorraine and Carolina Road - Carolina Hurricane
DYEAR=2010
DGENRE=Bluegrass
TTITLE0=Carolina Hurricane
TTITLE1=Wild and Blue
TTITLE2=Lady of Tradition
TTITLE3=Carolina Blue
TTITLE4=How Come You Do Me Like You Do
TTITLE5=No Smokey Mountains
TTITLE6=You Don't Know The Blues
TTITLE7=Carolina Memories
TTITLE8=You Won't Ever Forget Me
TTITLE9=Stay Away From Me
TTITLE10=Jesus Is My Rock
TTITLE11=Born To Be With You
EXTD=
EXTT0=
EXTT1=
EXTT2=
EXTT3=
EXTT4=
EXTT5=
EXTT6=
EXTT7=
EXTT8=
EXTT9=
EXTT10=
EXTT11=
PLAYORDER=
